<svg width="25" height="24" viewBox="0 0 25 24" fill="none" xmlns="http://www.w3.org/2000/svg">
<path fill-rule="evenodd" clip-rule="evenodd" d="M11.4493 2C16.4199 2 20.4493 6.02944 20.4493 11C20.4493 13.1248 19.713 15.0776 18.4816 16.6172L22.1564 20.2929C22.547 20.6834 22.547 21.3166 22.1564 21.7071C21.796 22.0676 21.2287 22.0953 20.8364 21.7903L20.7422 21.7071L17.0665 18.0323C15.5269 19.2637 13.5741 20 11.4493 20C6.47878 20 2.44934 15.9706 2.44934 11C2.44934 6.02944 6.47878 2 11.4493 2ZM11.4493 4C7.58335 4 4.44934 7.13401 4.44934 11C4.44934 14.866 7.58335 18 11.4493 18C15.3153 18 18.4493 14.866 18.4493 11C18.4493 7.13401 15.3153 4 11.4493 4Z" fill="#B49669"/>
</svg>
